<svg height="512" viewBox="0 0 64 64" width="512" xmlns="http://www.w3.org/2000/svg"><g id="Icons"><g><g><g><g><path d="m32 56h-26c-1.105 0-2-.895-2-2v-4c0-1.105.895-2 2-2h26z" fill="#c80a50"/></g></g></g><g><g><g><path d="m13.127 48c4.398 4.907 10.781 8 17.873 8v-8z" fill="#a00028"/></g></g></g><g><g><g><path d="m16 32h-8c0-13.234 10.767-24 24-24v8c-8.822 0-16 7.178-16 16z" fill="#fab400"/></g></g></g><g><g><g><path d="m32 56c-13.233 0-24-10.766-24-24h8c0 8.822 7.178 16 16 16z" fill="#00a0c8"/></g></g><path d="m32 48h18v8h-18z" fill="#00a0c8"/></g><g><g><g><path d="m23.586 10.586c-.781.781-.781 2.047 0 2.828l3.393 3.393c1.58-.523 3.268-.807 5.021-.807v-8c-2.366 0-4.652.344-6.813.985z" fill="#dc9600"/></g></g></g><g><g><g><path d="m10.586 40.414c.781.781 2.047.781 2.828 0l3.393-3.393c-.523-1.58-.807-3.268-.807-5.021h-8c0 2.366.344 4.652.985 6.813z" fill="#0082aa"/></g></g></g><g><g><g><path d="m53.414 23.586c-.781-.781-2.047-.781-2.828 0l-3.393 3.393c.523 1.58.807 3.268.807 5.021h8c0-2.366-.344-4.652-.985-6.813z" fill="#0082aa"/></g></g></g><path d="m34 8.083v-2.083c0-.809-.487-1.538-1.234-1.848-.749-.311-1.607-.139-2.18.434l-6 6c-.781.781-.781 2.047 0 2.828l6 6c.383.383.893.586 1.414.586.258 0 .518-.05.766-.152.747-.31 1.234-1.039 1.234-1.848v-1.875c7.882.987 14 7.73 14 15.875h8c0-12.56-9.699-22.897-22-23.917z" fill="#00a0c8"/><path d="m19.848 31.235c-.31-.748-1.039-1.235-1.848-1.235h-12c-.809 0-1.538.487-1.848 1.235-.31.747-.139 1.607.434 2.179l6 6c.391.391.902.586 1.414.586s1.023-.195 1.414-.586l6-6c.572-.572.743-1.432.434-2.179z" fill="#fab400"/><path d="m55.917 34h2.083c.809 0 1.538-.487 1.848-1.235.31-.747.139-1.607-.434-2.179l-6-6c-.781-.781-2.047-.781-2.828 0l-6 6c-.572.572-.743 1.432-.434 2.179.31.748 1.039 1.235 1.848 1.235h1.875c-.987 7.882-7.73 14-15.875 14h17.873c3.39-3.783 5.6-8.645 6.044-14z" fill="#c80a50"/><g><g><g><path d="m41 30h-.514c-.439 0-.806-.292-.955-.705-.087-.241-.184-.476-.293-.705-.188-.397-.134-.865.176-1.175l.364-.364c.391-.391.391-1.024 0-1.414l-1.414-1.414c-.391-.391-1.024-.391-1.414 0l-.364.364c-.311.311-.778.364-1.175.176-.229-.108-.465-.206-.705-.293-.414-.149-.706-.517-.706-.956v-.514c0-.552-.448-1-1-1h-2c-.552 0-1 .448-1 1v.514c0 .439-.292.806-.705.955-.241.087-.476.184-.705.293-.397.188-.865.134-1.175-.176l-.364-.364c-.391-.391-1.024-.391-1.414 0l-1.414 1.414c-.391.391-.391 1.024 0 1.414l.364.364c.311.311.364.778.176 1.175-.108.229-.206.465-.293.705-.149.414-.517.706-.956.706h-.514c-.552 0-1 .448-1 1v2c0 .552.448 1 1 1h.514c.439 0 .806.292.955.705.087.241.184.476.293.705.188.397.134.865-.176 1.175l-.364.364c-.391.391-.391 1.024 0 1.414l1.414 1.414c.391.391 1.024.391 1.414 0l.364-.364c.311-.311.778-.364 1.175-.176.229.108.465.206.705.293.414.149.706.517.706.956v.514c0 .552.448 1 1 1h2c.552 0 1-.448 1-1v-.514c0-.439.292-.806.705-.955.241-.087.476-.184.705-.293.397-.188.865-.134 1.175.176l.364.364c.391.391 1.024.391 1.414 0l1.414-1.414c.391-.391.391-1.024 0-1.414l-.364-.364c-.311-.311-.364-.778-.176-1.175.108-.229.206-.465.293-.705.149-.414.517-.706.956-.706h.514c.552 0 1-.448 1-1v-2c0-.552-.448-1-1-1zm-9 6c-2.209 0-4-1.791-4-4s1.791-4 4-4 4 1.791 4 4-1.791 4-4 4z" fill="#c80a50"/></g></g></g><path d="m59.414 50.586-6-6c-.573-.573-1.431-.743-2.18-.434-.747.31-1.234 1.039-1.234 1.848v2h-18v8h18v2c0 .809.487 1.538 1.234 1.848.248.102.508.152.766.152.521 0 1.031-.203 1.414-.586l6-6c.781-.781.781-2.047 0-2.828z" fill="#00a0c8"/></g></g></svg>