<svg clip-rule="evenodd" fill-rule="evenodd" height="512" image-rendering="optimizeQuality" shape-rendering="geometricPrecision" text-rendering="geometricPrecision" viewBox="0 0 512 512" width="512" xmlns="http://www.w3.org/2000/svg"><g id="Layer_x0020_1" fill-rule="nonzero"><g id="_346594048"><path d="m457 121-121-121h-250c-17 0-31 14-31 30v452c0 8 4 16 9 21 6 6 13 9 22 9h340c9 0 16-3 22-9l-5-4 5 4c5-5 9-13 9-21z" fill="#dfdfdf"/><path d="m340 2 115 115c4 3 1 10-4 10h-91c-17 0-30-14-30-30v-91c0-5 6-8 10-4z" fill="#b5b5b5"/></g><path d="m55 240v172h317c9 0 16-3 22-9l-5-4 5 4c5-5 8-13 8-21v-112c0-9-3-16-8-22l-5 5 5-5c-6-5-13-8-22-8z" fill="#3c5a82"/><g id="_346594336" fill="#b5b5b5"><path d="m100 201c-8 0-8 12 0 12h258c8 0 8-12 0-12z"/><path d="m100 155c-8 0-8 12 0 12h258c8 0 8-12 0-12z"/></g><path d="m93 372 36-93h13l38 93h-14l-11-28h-39l-10 28zm27-38h31c-4-12-13-34-16-45-3 14-10 31-15 45zm66 8 11-1c2 16 13 22 28 22 25 0 31-22 12-29-16-6-48-6-48-31 0-30 50-33 63-12 3 4 5 9 5 14l-12 1c-3-24-33-18-39-13s-7 13-1 18c10 9 55 5 55 35 0 33-54 36-69 13-3-5-5-10-5-17zm90 30v-93h19c7 24 19 57 26 80 7-24 19-56 27-80h17v93h-12v-78l-27 78h-11l-27-79v79z" fill="#fff"/></g></svg>