<svg id="visual" viewBox="0 0 900 600" width="900" height="600" xmlns="http://www.w3.org/2000/svg" xmlns:xlink="http://www.w3.org/1999/xlink" version="1.1"><path d="M0 387L21.5 391.8C43 396.7 86 406.3 128.8 404.2C171.7 402 214.3 388 257.2 380C300 372 343 370 385.8 382C428.7 394 471.3 420 514.2 418.8C557 417.7 600 389.3 642.8 374.7C685.7 360 728.3 359 771.2 372C814 385 857 412 878.5 425.5L900 439L900 601L878.5 601C857 601 814 601 771.2 601C728.3 601 685.7 601 642.8 601C600 601 557 601 514.2 601C471.3 601 428.7 601 385.8 601C343 601 300 601 257.2 601C214.3 601 171.7 601 128.8 601C86 601 43 601 21.5 601L0 601Z" fill="#082f49"></path><path d="M0 434L21.5 428.7C43 423.3 86 412.7 128.8 407.2C171.7 401.7 214.3 401.3 257.2 412C300 422.7 343 444.3 385.8 457.5C428.7 470.7 471.3 475.3 514.2 475.7C557 476 600 472 642.8 467.7C685.7 463.3 728.3 458.7 771.2 446.3C814 434 857 414 878.5 404L900 394L900 601L878.5 601C857 601 814 601 771.2 601C728.3 601 685.7 601 642.8 601C600 601 557 601 514.2 601C471.3 601 428.7 601 385.8 601C343 601 300 601 257.2 601C214.3 601 171.7 601 128.8 601C86 601 43 601 21.5 601L0 601Z" fill="#174f72"></path><path d="M0 473L21.5 477.2C43 481.3 86 489.7 128.8 495.8C171.7 502 214.3 506 257.2 507.5C300 509 343 508 385.8 503C428.7 498 471.3 489 514.2 482.5C557 476 600 472 642.8 475.7C685.7 479.3 728.3 490.7 771.2 497C814 503.3 857 504.7 878.5 505.3L900 506L900 601L878.5 601C857 601 814 601 771.2 601C728.3 601 685.7 601 642.8 601C600 601 557 601 514.2 601C471.3 601 428.7 601 385.8 601C343 601 300 601 257.2 601C214.3 601 171.7 601 128.8 601C86 601 43 601 21.5 601L0 601Z" fill="#24719d"></path><path d="M0 527L21.5 520.5C43 514 86 501 128.8 497.2C171.7 493.3 214.3 498.7 257.2 501.8C300 505 343 506 385.8 509C428.7 512 471.3 517 514.2 514.8C557 512.7 600 503.3 642.8 506.5C685.7 509.7 728.3 525.3 771.2 529C814 532.7 857 524.3 878.5 520.2L900 516L900 601L878.5 601C857 601 814 601 771.2 601C728.3 601 685.7 601 642.8 601C600 601 557 601 514.2 601C471.3 601 428.7 601 385.8 601C343 601 300 601 257.2 601C214.3 601 171.7 601 128.8 601C86 601 43 601 21.5 601L0 601Z" fill="#2f96ca"></path><path d="M0 570L21.5 567.3C43 564.7 86 559.3 128.8 557.3C171.7 555.3 214.3 556.7 257.2 552.3C300 548 343 538 385.8 539.8C428.7 541.7 471.3 555.3 514.2 560.2C557 565 600 561 642.8 554C685.7 547 728.3 537 771.2 531.5C814 526 857 525 878.5 524.5L900 524L900 601L878.5 601C857 601 814 601 771.2 601C728.3 601 685.7 601 642.8 601C600 601 557 601 514.2 601C471.3 601 428.7 601 385.8 601C343 601 300 601 257.2 601C214.3 601 171.7 601 128.8 601C86 601 43 601 21.5 601L0 601Z" fill="#38bdf8"></path></svg>