<svg id="Layer_1" height="512" viewBox="0 0 100 100" width="512" xmlns="http://www.w3.org/2000/svg"><path d="m76.665 36.673c-1.152 0-2.266-.162-3.332-.438v7.1c0 1.843-1.496 3.334-3.333 3.334h-33.333c-3.771 0-7.207 1.299-10 3.412l-.001 13.254c0-5.521 4.479-9.999 10-9.999h33.334c5.521 0 10-4.477 10-10.001v-7.1c-1.067.276-2.182.438-3.335.438z" fill="#2cabe1"/><path d="m30.666 55.351v-7.517c-1.437.572-2.782 1.326-3.999 2.247l-.001 13.254c0-3.267 1.576-6.159 4-7.984z" fill="#0077bd"/><path d="m23.333 36.67c-1.153 0-2.267-.162-3.333-.438v27.543c1.067-.274 2.18-.437 3.333-.437s2.266.162 3.333.437v-27.543c-1.066.276-2.179.438-3.333.438z" fill="#ffc00e"/><path d="m20 36.232v4.112c1.08.211 2.194.325 3.333.325 1.141 0 2.254-.114 3.333-.325v-4.112c-1.067.275-2.18.438-3.333.438s-2.266-.162-3.333-.438z" fill="#f68e1e"/><path d="m73.333 36.232v4.112c1.079.211 2.193.325 3.334.325 1.139 0 2.253-.114 3.333-.325v-4.112c-1.067.275-2.18.438-3.333.438s-2.268-.162-3.334-.438z" fill="#0077bd"/><path d="m23.333 70.004c-3.682 0-6.667 2.984-6.667 6.665 0 3.687 2.985 6.667 6.667 6.667s6.667-2.981 6.667-6.667c0-3.681-2.984-6.665-6.667-6.665z" fill="#fceaed"/><path d="m23.333 63.339c-7.363 0-13.333 5.968-13.333 13.33.001 7.371 5.97 13.331 13.333 13.331s13.332-5.96 13.332-13.331c.001-7.362-5.968-13.33-13.332-13.33zm0 19.997c-3.682 0-6.667-2.98-6.667-6.667 0-3.681 2.985-6.665 6.667-6.665s6.667 2.984 6.667 6.665c0 3.686-2.984 6.667-6.667 6.667z" fill="#e53a34"/><path d="m16.667 23.335c0 3.683 2.985 6.668 6.667 6.668s6.666-2.985 6.666-6.668c0-3.68-2.984-6.665-6.667-6.665s-6.666 2.984-6.666 6.665z" fill="#f1f7e9"/><path d="m23.333 10.003c-7.363 0-13.333 5.969-13.333 13.332 0 7.364 5.97 13.335 13.333 13.335s13.333-5.973 13.333-13.335c0-7.36-5.969-13.332-13.333-13.332zm0 20c-3.682 0-6.667-2.985-6.667-6.668 0-3.681 2.985-6.665 6.667-6.665s6.667 2.985 6.667 6.665c0 3.683-2.984 6.668-6.667 6.668z" fill="#7cb342"/><path d="m19.495 79.499c0-3.682 2.98-6.667 6.666-6.666 1.112 0 2.158.275 3.079.757-1.113-2.13-3.338-3.586-5.907-3.586-3.687 0-6.666 2.985-6.666 6.667-.001 2.57 1.454 4.798 3.585 5.91-.482-.923-.757-1.97-.757-3.082z" fill="#f9ccd2"/><path d="m19.495 26.165c0-3.682 2.98-6.667 6.666-6.666 1.112 0 2.158.275 3.079.757-1.113-2.13-3.338-3.586-5.907-3.586-3.687 0-6.666 2.985-6.666 6.667-.001 2.57 1.454 4.798 3.585 5.91-.482-.923-.757-1.97-.757-3.082z" fill="#dbebc7"/><path d="m63.333 23.335c0 7.366 5.969 13.338 13.332 13.338 7.369 0 13.335-5.972 13.335-13.338 0-7.364-5.966-13.335-13.335-13.335-7.363 0-13.332 5.971-13.332 13.335z" fill="#e53a34"/><path d="m66.161 26.162c0-7.363 5.972-13.333 13.337-13.333 2.961 0 5.686.977 7.898 2.607-2.427-3.29-6.322-5.435-10.726-5.436-7.365 0-13.337 5.971-13.337 13.334 0 4.405 2.144 8.298 5.434 10.726-1.631-2.212-2.606-4.937-2.606-7.898z" fill="#b62025"/></svg>