<svg id="visual" viewBox="0 0 900 600" width="900" height="600" xmlns="http://www.w3.org/2000/svg" xmlns:xlink="http://www.w3.org/1999/xlink" version="1.1"><g><g transform="translate(384 152)"><path d="M0 -62.8L54.4 -31.4L54.4 31.4L0 62.8L-54.4 31.4L-54.4 -31.4Z" fill="none" stroke="#297EA6" stroke-width="2"></path></g><g transform="translate(276 379)"><path d="M0 -52L45 -26L45 26L0 52L-45 26L-45 -26Z" fill="none" stroke="#297EA6" stroke-width="2"></path></g><g transform="translate(582 269)"><path d="M0 -19L16.5 -9.5L16.5 9.5L0 19L-16.5 9.5L-16.5 -9.5Z" stroke="#297EA6" fill="none" stroke-width="2"></path></g><g transform="translate(750 400)"><path d="M0 -18L15.6 -9L15.6 9L0 18L-15.6 9L-15.6 -9Z" stroke="#297EA6" fill="none" stroke-width="2"></path></g><g transform="translate(107 131)"><path d="M0 -17L14.7 -8.5L14.7 8.5L0 17L-14.7 8.5L-14.7 -8.5Z" stroke="#297EA6" fill="none" stroke-width="2"></path></g><g transform="translate(97 438)"><path d="M0 -55L47.6 -27.5L47.6 27.5L0 55L-47.6 27.5L-47.6 -27.5Z" stroke="#297EA6" fill="none" stroke-width="2"></path></g><g transform="translate(692 67)"><path d="M0 -41L35.5 -20.5L35.5 20.5L0 41L-35.5 20.5L-35.5 -20.5Z" stroke="#297EA6" fill="none" stroke-width="2"></path></g><g transform="translate(452 483)"><path d="M0 -29L25.1 -14.5L25.1 14.5L0 29L-25.1 14.5L-25.1 -14.5Z" stroke="#297EA6" fill="none" stroke-width="2"></path></g><g transform="translate(827 170)"><path d="M0 -17L14.7 -8.5L14.7 8.5L0 17L-14.7 8.5L-14.7 -8.5Z" stroke="#297EA6" fill="none" stroke-width="2"></path></g><g transform="translate(402 290)"><path d="M0 -61L52.8 -30.5L52.8 30.5L0 61L-52.8 30.5L-52.8 -30.5Z" stroke="#297EA6" fill="none" stroke-width="2"></path></g><g transform="translate(633 491)"><path d="M0 -24L20.8 -12L20.8 12L0 24L-20.8 12L-20.8 -12Z" stroke="#297EA6" fill="none" stroke-width="2"></path></g><g transform="translate(167 287)"><path d="M0 -23L19.9 -11.5L19.9 11.5L0 23L-19.9 11.5L-19.9 -11.5Z" stroke="#297EA6" fill="none" stroke-width="2"></path></g><g transform="translate(246 175)"><path d="M0 -17L14.7 -8.5L14.7 8.5L0 17L-14.7 8.5L-14.7 -8.5Z" stroke="#297EA6" fill="none" stroke-width="2"></path></g><g transform="translate(512 109)"><path d="M0 -47L40.7 -23.5L40.7 23.5L0 47L-40.7 23.5L-40.7 -23.5Z" stroke="#297EA6" fill="none" stroke-width="2"></path></g><g transform="translate(239 534)"><path d="M0 -47L40.7 -23.5L40.7 23.5L0 47L-40.7 23.5L-40.7 -23.5Z" stroke="#297EA6" fill="none" stroke-width="2"></path></g><g transform="translate(832 304)"><path d="M0 -38L32.9 -19L32.9 19L0 38L-32.9 19L-32.9 -19Z" stroke="#297EA6" fill="none" stroke-width="2"></path></g><g transform="translate(809 535)"><path d="M0 -17L14.7 -8.5L14.7 8.5L0 17L-14.7 8.5L-14.7 -8.5Z" stroke="#297EA6" fill="none" stroke-width="2"></path></g><g transform="translate(547 399)"><path d="M0 -33L28.6 -16.5L28.6 16.5L0 33L-28.6 16.5L-28.6 -16.5Z" stroke="#297EA6" fill="none" stroke-width="2"></path></g></g></svg>