<svg id="visual" viewBox="0 0 900 120" width="900" height="120" xmlns="http://www.w3.org/2000/svg" xmlns:xlink="http://www.w3.org/1999/xlink" version="1.1"><path d="M0 35L13.7 33.2C27.3 31.3 54.7 27.7 82 24.8C109.3 22 136.7 20 163.8 23.2C191 26.3 218 34.7 245.2 38.8C272.3 43 299.7 43 327 41.5C354.3 40 381.7 37 409 36.7C436.3 36.3 463.7 38.7 491 41.3C518.3 44 545.7 47 573 48.7C600.3 50.3 627.7 50.7 654.8 47C682 43.3 709 35.7 736.2 34.8C763.3 34 790.7 40 818 41.5C845.3 43 872.7 40 886.3 38.5L900 37L900 121L886.3 121C872.7 121 845.3 121 818 121C790.7 121 763.3 121 736.2 121C709 121 682 121 654.8 121C627.7 121 600.3 121 573 121C545.7 121 518.3 121 491 121C463.7 121 436.3 121 409 121C381.7 121 354.3 121 327 121C299.7 121 272.3 121 245.2 121C218 121 191 121 163.8 121C136.7 121 109.3 121 82 121C54.7 121 27.3 121 13.7 121L0 121Z" fill="#082f49"></path><path d="M0 52L13.7 49.8C27.3 47.7 54.7 43.3 82 45.8C109.3 48.3 136.7 57.7 163.8 56.8C191 56 218 45 245.2 42.2C272.3 39.3 299.7 44.7 327 47.3C354.3 50 381.7 50 409 48C436.3 46 463.7 42 491 39.7C518.3 37.3 545.7 36.7 573 39.7C600.3 42.7 627.7 49.3 654.8 54.7C682 60 709 64 736.2 63.5C763.3 63 790.7 58 818 53.3C845.3 48.7 872.7 44.3 886.3 42.2L900 40L900 121L886.3 121C872.7 121 845.3 121 818 121C790.7 121 763.3 121 736.2 121C709 121 682 121 654.8 121C627.7 121 600.3 121 573 121C545.7 121 518.3 121 491 121C463.7 121 436.3 121 409 121C381.7 121 354.3 121 327 121C299.7 121 272.3 121 245.2 121C218 121 191 121 163.8 121C136.7 121 109.3 121 82 121C54.7 121 27.3 121 13.7 121L0 121Z" fill="#174f72"></path><path d="M0 64L13.7 63.3C27.3 62.7 54.7 61.3 82 61.7C109.3 62 136.7 64 163.8 65.5C191 67 218 68 245.2 68.3C272.3 68.7 299.7 68.3 327 65.5C354.3 62.7 381.7 57.3 409 55.7C436.3 54 463.7 56 491 61.5C518.3 67 545.7 76 573 80.5C600.3 85 627.7 85 654.8 83.8C682 82.7 709 80.3 736.2 78.3C763.3 76.3 790.7 74.7 818 75.8C845.3 77 872.7 81 886.3 83L900 85L900 121L886.3 121C872.7 121 845.3 121 818 121C790.7 121 763.3 121 736.2 121C709 121 682 121 654.8 121C627.7 121 600.3 121 573 121C545.7 121 518.3 121 491 121C463.7 121 436.3 121 409 121C381.7 121 354.3 121 327 121C299.7 121 272.3 121 245.2 121C218 121 191 121 163.8 121C136.7 121 109.3 121 82 121C54.7 121 27.3 121 13.7 121L0 121Z" fill="#24719d"></path><path d="M0 98L13.7 97.3C27.3 96.7 54.7 95.3 82 93.2C109.3 91 136.7 88 163.8 86.3C191 84.7 218 84.3 245.2 85.3C272.3 86.3 299.7 88.7 327 90.3C354.3 92 381.7 93 409 91C436.3 89 463.7 84 491 81.2C518.3 78.3 545.7 77.7 573 80.3C600.3 83 627.7 89 654.8 89C682 89 709 83 736.2 83.5C763.3 84 790.7 91 818 91.3C845.3 91.7 872.7 85.3 886.3 82.2L900 79L900 121L886.3 121C872.7 121 845.3 121 818 121C790.7 121 763.3 121 736.2 121C709 121 682 121 654.8 121C627.7 121 600.3 121 573 121C545.7 121 518.3 121 491 121C463.7 121 436.3 121 409 121C381.7 121 354.3 121 327 121C299.7 121 272.3 121 245.2 121C218 121 191 121 163.8 121C136.7 121 109.3 121 82 121C54.7 121 27.3 121 13.7 121L0 121Z" fill="#2f96ca"></path><path d="M0 108L13.7 105.3C27.3 102.7 54.7 97.3 82 97.5C109.3 97.7 136.7 103.3 163.8 102.8C191 102.3 218 95.7 245.2 92.3C272.3 89 299.7 89 327 91C354.3 93 381.7 97 409 99.3C436.3 101.7 463.7 102.3 491 102.3C518.3 102.3 545.7 101.7 573 102.3C600.3 103 627.7 105 654.8 105.2C682 105.3 709 103.7 736.2 102.8C763.3 102 790.7 102 818 100.8C845.3 99.7 872.7 97.3 886.3 96.2L900 95L900 121L886.3 121C872.7 121 845.3 121 818 121C790.7 121 763.3 121 736.2 121C709 121 682 121 654.8 121C627.7 121 600.3 121 573 121C545.7 121 518.3 121 491 121C463.7 121 436.3 121 409 121C381.7 121 354.3 121 327 121C299.7 121 272.3 121 245.2 121C218 121 191 121 163.8 121C136.7 121 109.3 121 82 121C54.7 121 27.3 121 13.7 121L0 121Z" fill="#38bdf8"></path></svg>